<svg xmlns="http://www.w3.org/2000/svg"  viewBox="0 0 24 24" width="24px" height="24px"><path d="M8,20.713V14h7l-4.622,7.395C10.143,21.771,9.73,22,9.287,22l0,0C8.576,22,8,21.424,8,20.713z"/><path d="M2,15.697V14h4l-1.613,2.42C4.145,16.782,3.739,17,3.303,17l0,0C2.583,17,2,16.417,2,15.697z"/><path d="M8,3.287V10h7l-4.622-7.395C10.143,2.229,9.73,2,9.287,2l0,0C8.576,2,8,2.576,8,3.287z"/><path d="M2,8.303V10h4L4.387,7.58C4.145,7.218,3.738,7,3.303,7l0,0C2.583,7,2,7.583,2,8.303z"/><path d="M20,14c1.105,0,2-0.895,2-2s-0.895-2-2-2c-0.601,0-18,0-18,0v4	C2,14,19.399,14,20,14z" opacity=".35"/></svg>