<svg xmlns="http://www.w3.org/2000/svg"  viewBox="0 0 24 24" width="24px" height="24px"><path d="M11.501,24c-0.423,0-0.843-0.178-1.14-0.524c-0.539-0.629-0.467-1.576,0.162-2.115l5.524-4.735 L4.646,8.733c-0.682-0.472-0.852-1.406-0.38-2.087c0.471-0.681,1.408-0.851,2.087-0.379l13,9c0.383,0.265,0.62,0.692,0.645,1.156 c0.023,0.464-0.169,0.914-0.521,1.216l-7,6C12.193,23.881,11.846,24,11.501,24z" opacity=".35"/><path d="M11.5,24c-0.828,0-1.5-0.671-1.5-1.5v-6.569l-3.585,2.758c-0.657,0.505-1.6,0.383-2.104-0.274 c-0.506-0.657-0.383-1.599,0.273-2.104L10,12.146V1.5c0-0.586,0.341-1.118,0.873-1.363c0.53-0.245,1.158-0.158,1.604,0.224l7,6 c0.343,0.294,0.535,0.727,0.522,1.178c-0.012,0.452-0.227,0.874-0.584,1.149L13,13.623V22.5C13,23.329,12.328,24,11.5,24z M13,4.761v5.077l3.122-2.401L13,4.761z"/></svg>