<?xml version="1.0" encoding="iso-8859-1"?>
<!-- Generator: Adobe Illustrator 24.3.0, SVG Export Plug-In . SVG Version: 6.00 Build 0)  -->
<svg version="1.1" id="Layer_1" xmlns="http://www.w3.org/2000/svg" xmlns:xlink="http://www.w3.org/1999/xlink" x="0px" y="0px"
	 viewBox="0 0 24 24" style="enable-background:new 0 0 24 24;" xml:space="preserve">
<g style="opacity:0.35;">
	<g>
		<path d="M18.673,13.092l0.051-0.081l-0.003-0.007C18.894,12.708,19,12.368,19,12c0-0.974-0.697-1.783-1.619-1.962L14,9V4
			c0-1.105-0.895-2-2-2c-0.712,0-1.333,0.375-1.688,0.936l-0.005-0.001l-4.944,7.921C5.136,11.18,5,11.573,5,12
			c0,0.91,0.611,1.669,1.442,1.911l0.002,0.006L10,15v5c0,1.105,0.895,2,2,2c0.773,0,1.436-0.444,1.769-1.086l4.88-7.785
			C18.658,13.117,18.665,13.104,18.673,13.092z"/>
	</g>
</g>
</svg>