<?xml version="1.0" encoding="iso-8859-1"?>
<!-- Generator: Adobe Illustrator 25.0.0, SVG Export Plug-In . SVG Version: 6.00 Build 0)  -->
<svg version="1.1" id="Layer_1" xmlns="http://www.w3.org/2000/svg" xmlns:xlink="http://www.w3.org/1999/xlink" x="0px" y="0px"
	 viewBox="0 0 24 24" style="enable-background:new 0 0 24 24;" xml:space="preserve">
<g style="opacity:0.35;">
	<g>
		<path d="M19.483,8.192C18.345,5.161,15.429,3,12,3C9.936,3,8.06,3.789,6.641,5.072C6.434,5.027,6.221,5,6,5C4.343,5,3,6.343,3,8
			c0,0.835,0.342,1.589,0.892,2.133C1.666,10.638,0,12.621,0,15c0,2.761,2.239,5,5,5h13c3.314,0,6-2.686,6-6
			C24,11.199,22.078,8.854,19.483,8.192z"/>
	</g>
</g>
<path style="fill-rule:evenodd;clip-rule:evenodd;" d="M11.639,7.44l-1.345-0.609c-0.19-0.087-0.341-0.242-0.421-0.435
	c-0.08-0.193-0.083-0.409-0.01-0.605l0.52-1.382c0.085-0.226,0.03-0.481-0.141-0.652c-0.171-0.171-0.426-0.226-0.652-0.141
	l-1.382,0.52c-0.196,0.074-0.412,0.07-0.605-0.01c-0.193-0.08-0.349-0.23-0.435-0.421L6.561,2.362C6.461,2.141,6.242,2,6,2
	S5.539,2.141,5.439,2.362L4.83,3.707c-0.087,0.19-0.242,0.341-0.435,0.421c-0.193,0.08-0.409,0.083-0.605,0.009l-1.382-0.52
	c-0.226-0.085-0.481-0.03-0.652,0.141C1.586,3.928,1.531,4.183,1.616,4.409l0.521,1.382c0.074,0.196,0.07,0.412-0.01,0.605
	c-0.08,0.193-0.23,0.349-0.421,0.435L0.362,7.439C0.141,7.539,0,7.758,0,8c0,0.242,0.141,0.461,0.361,0.56l1.345,0.609
	c0.19,0.087,0.341,0.242,0.421,0.435c0.08,0.193,0.083,0.409,0.01,0.605l-0.52,1.382c-0.085,0.226-0.03,0.481,0.141,0.652
	c0.171,0.171,0.426,0.226,0.652,0.141l1.382-0.52c0.196-0.074,0.412-0.07,0.605,0.01c0.193,0.08,0.349,0.23,0.435,0.421l0.609,1.345
	C5.539,13.859,5.758,14,6,14s0.461-0.141,0.56-0.361l0.609-1.345c0.087-0.19,0.242-0.341,0.435-0.421
	c0.193-0.08,0.409-0.083,0.605-0.01l1.382,0.52c0.226,0.085,0.481,0.03,0.652-0.141c0.171-0.171,0.226-0.426,0.141-0.652
	l-0.52-1.382c-0.074-0.196-0.07-0.412,0.01-0.605c0.08-0.193,0.23-0.349,0.421-0.435l1.345-0.609C11.859,8.461,12,8.242,12,8
	C12,7.758,11.859,7.539,11.639,7.44z M6.003,10.613c-1.441,0-2.609-1.168-2.609-2.609s1.168-2.609,2.609-2.609
	c1.441,0,2.609,1.169,2.609,2.609C8.612,9.445,7.444,10.613,6.003,10.613z"/>
</svg>