<?xml version="1.0" encoding="iso-8859-1"?>
<!-- Generator: Adobe Illustrator 24.3.0, SVG Export Plug-In . SVG Version: 6.00 Build 0)  -->
<svg version="1.1" id="Layer_1" xmlns="http://www.w3.org/2000/svg" xmlns:xlink="http://www.w3.org/1999/xlink" x="0px" y="0px"
	 viewBox="0 0 24 24" style="enable-background:new 0 0 24 24;" xml:space="preserve">
<path style="opacity:0.35;" d="M6,17V5c0-1.657,1.343-3,3-3h5l6,6v9c0,1.657-1.343,3-3,3H9C7.343,20,6,18.657,6,17z"/>
<path d="M14,6V2l6,6h-4C14.895,8,14,7.105,14,6z"/>
<path d="M9,20c-1.657,0-3-1.343-3-3V5C4.895,5,4,5.895,4,7v12c0,1.657,1.343,3,3,3h8c1.105,0,2-0.895,2-2H9z"/>
</svg>