<?xml version="1.0" encoding="iso-8859-1"?>
<!-- Generator: Adobe Illustrator 25.0.0, SVG Export Plug-In . SVG Version: 6.00 Build 0)  -->
<svg version="1.1" id="Layer_1" xmlns="http://www.w3.org/2000/svg" xmlns:xlink="http://www.w3.org/1999/xlink" x="0px" y="0px"
	 viewBox="0 0 24 24" style="enable-background:new 0 0 24 24;" xml:space="preserve">
<path d="M13,2c0-0.552-0.448-1-1-1s-1,0.448-1,1c0,0.186,0,19.814,0,20c0,0.552,0.448,1,1,1s1-0.448,1-1C13,21.814,13,2.186,13,2z"
	/>
<path style="opacity:0.35;" d="M12,6c-0.256,0-0.512-0.098-0.707-0.293l-2-2c-0.391-0.391-0.391-1.023,0-1.414s1.023-0.391,1.414,0
	L12,3.586l1.293-1.293c0.391-0.391,1.023-0.391,1.414,0s0.391,1.023,0,1.414l-2,2C12.512,5.902,12.256,6,12,6z"/>
<path style="opacity:0.35;" d="M14,22c-0.256,0-0.512-0.098-0.707-0.293L12,20.414l-1.293,1.293c-0.391,0.391-1.023,0.391-1.414,0
	s-0.391-1.023,0-1.414l2-2c0.391-0.391,1.023-0.391,1.414,0l2,2c0.391,0.391,0.391,1.023,0,1.414C14.512,21.902,14.256,22,14,22z"/>
<path d="M2.84,16.134C2.361,16.41,2.198,17.022,2.474,17.5s0.888,0.642,1.366,0.366c0.161-0.093,17.159-9.907,17.321-10
	c0.478-0.276,0.642-0.888,0.366-1.366s-0.888-0.642-1.366-0.366C19.999,6.227,3.001,16.041,2.84,16.134z"/>
<path style="opacity:0.35;" d="M6.804,15c0.128,0.222,0.171,0.492,0.1,0.759l-0.732,2.732c-0.143,0.534-0.691,0.85-1.225,0.707
	s-0.85-0.691-0.707-1.225l0.473-1.766l-1.766-0.473c-0.534-0.143-0.85-0.691-0.707-1.225s0.691-0.85,1.225-0.707l2.732,0.732
	C6.463,14.606,6.676,14.778,6.804,15z"/>
<path style="opacity:0.35;" d="M19.66,5.268c0.128,0.222,0.171,0.492,0.1,0.759l-0.473,1.766l1.766,0.473
	c0.534,0.143,0.85,0.691,0.707,1.225s-0.691,0.85-1.225,0.707l-2.732-0.732c-0.534-0.143-0.85-0.691-0.707-1.225l0.732-2.732
	c0.143-0.534,0.691-0.85,1.225-0.707C19.32,4.874,19.532,5.046,19.66,5.268z"/>
<path d="M20.16,17.866c0.478,0.276,1.09,0.112,1.366-0.366s0.112-1.09-0.366-1.366c-0.161-0.093-17.159-9.907-17.321-10
	C3.361,5.858,2.75,6.022,2.474,6.5S2.361,7.59,2.84,7.866C3.001,7.959,19.999,17.773,20.16,17.866z"/>
<path style="opacity:0.35;" d="M17.196,15c0.128-0.222,0.34-0.394,0.607-0.466l2.732-0.732c0.534-0.143,1.082,0.173,1.225,0.707
	s-0.173,1.082-0.707,1.225l-1.766,0.473l0.473,1.766c0.143,0.534-0.173,1.082-0.707,1.225s-1.082-0.173-1.225-0.707l-0.732-2.732
	C17.025,15.492,17.068,15.222,17.196,15z"/>
<path style="opacity:0.35;" d="M2.34,8.732C2.468,8.51,2.68,8.338,2.947,8.266l1.766-0.473L4.24,6.027
	C4.097,5.493,4.413,4.945,4.947,4.802s1.082,0.173,1.225,0.707l0.732,2.732C7.047,8.775,6.73,9.323,6.197,9.466l-2.732,0.732
	c-0.534,0.143-1.082-0.173-1.225-0.707C2.168,9.224,2.212,8.954,2.34,8.732z"/>
<circle style="opacity:0.35;" cx="12" cy="12" r="5"/>
</svg>