<svg xmlns="http://www.w3.org/2000/svg"  viewBox="0 0 24 24" width="24px" height="24px"><circle cx="8.5" cy="9.5" r="1.5"/><circle cx="15.5" cy="11.5" r="1.5"/><path d="M22.96,17.261c0,0-1.632-8.324-1.954-9.29C20.391,5.951,19.593,5.003,18,5c-1.488-0.003-2,1-2,1H8	c0,0-0.492-0.985-1.977-0.985c-1.634,0-2.698,1.159-3.016,2.699C2.919,8.123,2.838,8.395,2.73,8.825l-1.69,8.436	C0.764,18.69,1.966,20,3.554,20h0.223c1.099,0,1.945-0.531,2.571-1.497l1.66-2.535l7.979,0.024l1.599,2.458	c0.544,0.924,1.537,1.55,2.636,1.55h0.223C22.034,20,23.236,18.69,22.96,17.261z" opacity=".35"/></svg>