<?xml version="1.0" encoding="iso-8859-1"?>
<!-- Generator: Adobe Illustrator 24.3.0, SVG Export Plug-In . SVG Version: 6.00 Build 0)  -->
<svg version="1.1" id="Layer_1" xmlns="http://www.w3.org/2000/svg" xmlns:xlink="http://www.w3.org/1999/xlink" x="0px" y="0px"
	 viewBox="0 0 24 24" style="enable-background:new 0 0 24 24;" xml:space="preserve">
<g style="opacity:0.35;">
	<g>
		<path d="M20,4H4C2.343,4,1,5.343,1,7v10c0,1.657,1.343,3,3,3h16c1.657,0,3-1.343,3-3V7C23,5.343,21.657,4,20,4z"/>
	</g>
</g>
<circle cx="16" cy="10" r="1"/>
<circle cx="20" cy="10" r="1"/>
<circle cx="12" cy="10" r="1"/>
<circle cx="8" cy="10" r="1"/>
<circle cx="4" cy="10" r="1"/>
<circle cx="20" cy="14" r="1"/>
<circle cx="4" cy="14" r="1"/>
<path d="M16,13c-0.186,0-7.814,0-8,0c-0.552,0-1,0.448-1,1c0,0.552,0.448,1,1,1c0.186,0,7.814,0,8,0c0.552,0,1-0.448,1-1
	C17,13.448,16.552,13,16,13z"/>
</svg>