<svg xmlns="http://www.w3.org/2000/svg"  viewBox="0 0 24 24" width="24px" height="24px"><path d="M21,5c0-1.105-0.895-2-2-2H5C3.895,3,3,3.895,3,5v14c0,1.105,0.895,2,2,2h14c1.105,0,2-0.895,2-2V5z" opacity=".35"/><path d="M6,7h1V6c0-0.552,0.447-1,1-1s1,0.448,1,1v1h1c0.553,0,1,0.448,1,1s-0.447,1-1,1H9v1c0,0.552-0.447,1-1,1s-1-0.448-1-1V9H6	C5.447,9,5,8.552,5,8S5.447,7,6,7z"/><path d="M10.707,17.293c0.391,0.391,0.391,1.023,0,1.414C10.512,18.902,10.256,19,10,19s-0.512-0.098-0.707-0.293L8,17.414	l-1.293,1.293C6.512,18.902,6.256,19,6,19s-0.512-0.098-0.707-0.293c-0.391-0.391-0.391-1.023,0-1.414L6.586,16l-1.293-1.293	c-0.391-0.391-0.391-1.023,0-1.414c0.391-0.391,1.023-0.391,1.414,0L8,14.586l1.293-1.293c0.391-0.391,1.023-0.391,1.414,0	c0.391,0.391,0.391,1.023,0,1.414L9.414,16L10.707,17.293z"/><path d="M18,19h-4c-0.553,0-1-0.448-1-1s0.447-1,1-1h4c0.553,0,1,0.448,1,1S18.553,19,18,19z"/><path d="M18,15h-4c-0.553,0-1-0.448-1-1s0.447-1,1-1h4c0.553,0,1,0.448,1,1S18.553,15,18,15z"/><path d="M18,9h-4c-0.553,0-1-0.448-1-1s0.447-1,1-1h4c0.553,0,1,0.448,1,1S18.553,9,18,9z"/></svg>