<?xml version="1.0" encoding="iso-8859-1"?>
<!-- Generator: Adobe Illustrator 24.3.0, SVG Export Plug-In . SVG Version: 6.00 Build 0)  -->
<svg version="1.1" id="Layer_1" xmlns="http://www.w3.org/2000/svg" xmlns:xlink="http://www.w3.org/1999/xlink" x="0px" y="0px"
	 viewBox="0 0 24 24" style="enable-background:new 0 0 24 24;" xml:space="preserve">
<path style="opacity:0.35;" d="M20,14H4c-1.105,0-2-0.895-2-2v0c0-1.105,0.895-2,2-2h16c1.105,0,2,0.895,2,2v0
	C22,13.105,21.105,14,20,14z"/>
<path d="M20,7H4C2.895,7,2,6.105,2,5v0c0-1.105,0.895-2,2-2h16c1.105,0,2,0.895,2,2v0C22,6.105,21.105,7,20,7z"/>
<path d="M20,21H4c-1.105,0-2-0.895-2-2v0c0-1.105,0.895-2,2-2h16c1.105,0,2,0.895,2,2v0C22,20.105,21.105,21,20,21z"/>
</svg>