<svg xmlns="http://www.w3.org/2000/svg"  viewBox="0 0 24 24" width="24px" height="24px"><path d="M12,15L12,15c-2.209,0-4-1.791-4-4V6c0-2.209,1.791-4,4-4l0,0c2.209,0,4,1.791,4,4v5C16,13.209,14.209,15,12,15z"/><path d="M19.057,13.016c-0.668-0.191-1.4,0.092-1.716,0.711C16.348,15.669,14.331,17,12,17s-4.348-1.331-5.34-3.273 c-0.316-0.619-1.048-0.902-1.716-0.711l0,0c-0.911,0.26-1.36,1.295-0.922,2.135c1.201,2.308,3.378,4.01,5.979,4.604V20 c0,1.105,0.895,2,2,2s2-0.895,2-2v-0.245c2.601-0.594,4.778-2.296,5.979-4.604C20.417,14.311,19.968,13.276,19.057,13.016z" opacity=".35"/><path d="M21,22c-0.256,0-0.512-0.098-0.707-0.293l-18-18c-0.391-0.391-0.391-1.023,0-1.414s1.023-0.391,1.414,0l18,18	c0.391,0.391,0.391,1.023,0,1.414C21.512,21.902,21.256,22,21,22z"/></svg>