<?xml version="1.0" encoding="iso-8859-1"?>
<!-- Generator: Adobe Illustrator 25.2.1, SVG Export Plug-In . SVG Version: 6.00 Build 0)  -->
<svg version="1.1" id="&#x421;&#x43B;&#x43E;&#x439;_1"
	 xmlns="http://www.w3.org/2000/svg" xmlns:xlink="http://www.w3.org/1999/xlink" x="0px" y="0px" viewBox="0 0 24 24"
	 style="enable-background:new 0 0 24 24;" xml:space="preserve">
<g style="opacity:0.35;enable-background:new    ;">
	<path d="M19.483,8.192C18.345,5.161,15.429,3,12,3c-4.112,0-7.496,3.104-7.945,7.095C1.746,10.538,0,12.562,0,15
		c0,2.761,2.239,5,5,5h13c3.314,0,6-2.686,6-6C24,11.199,22.078,8.854,19.483,8.192z"/>
</g>
<g>
	<path style="fill-rule:evenodd;clip-rule:evenodd;" d="M14.5,11.003c-0.386,0-7.614,0-8,0c-0.828,0-1.5,0.672-1.5,1.5
		s0.672,1.5,1.5,1.5c0.386,0,7.614,0,8,0c0.828,0,1.5-0.672,1.5-1.5S15.328,11.003,14.5,11.003z"/>
</g>
<g>
	<path style="fill-rule:evenodd;clip-rule:evenodd;" d="M14.5,17.003c-0.386,0-11.614,0-12,0c-0.828,0-1.5,0.672-1.5,1.5
		s0.672,1.5,1.5,1.5c0.386,0,11.614,0,12,0c0.828,0,1.5-0.672,1.5-1.5S15.328,17.003,14.5,17.003z"/>
</g>
<g>
	<path style="fill-rule:evenodd;clip-rule:evenodd;" d="M21.5,5.003c-0.386,0-11.614,0-12,0c-0.828,0-1.5,0.672-1.5,1.5
		s0.672,1.5,1.5,1.5c0.386,0,11.614,0,12,0c0.828,0,1.5-0.672,1.5-1.5S22.328,5.003,21.5,5.003z"/>
</g>
</svg>