<svg xmlns="http://www.w3.org/2000/svg"  viewBox="0 0 24 24" width="24px" height="24px"><circle cx="12" cy="12" r="10" opacity=".35"/><path d="M12,11c-0.553,0-1-0.448-1-1V6c0-0.552,0.447-1,1-1s1,0.448,1,1v4C13,10.552,12.553,11,12,11z"/><path d="M12,19c-3.859,0-7-3.14-7-7c0-1.987,0.85-3.888,2.331-5.215C7.74,6.417,8.372,6.451,8.743,6.862 c0.368,0.412,0.333,1.044-0.078,1.412C7.607,9.223,7,10.581,7,12c0,2.757,2.243,5,5,5s5-2.243,5-5c0-1.416-0.604-2.771-1.657-3.718 c-0.41-0.37-0.444-1.002-0.074-1.413c0.369-0.41,1.002-0.443,1.412-0.075C18.154,8.121,19,10.018,19,12C19,15.86,15.859,19,12,19z"/></svg>