<?xml version="1.0" encoding="iso-8859-1"?>
<!-- Generator: Adobe Illustrator 25.0.0, SVG Export Plug-In . SVG Version: 6.00 Build 0)  -->
<svg version="1.1" id="Layer_1" xmlns="http://www.w3.org/2000/svg" xmlns:xlink="http://www.w3.org/1999/xlink" x="0px" y="0px"
	 viewBox="0 0 24 24" style="enable-background:new 0 0 24 24;" xml:space="preserve">
<circle style="opacity:0.35;" cx="12" cy="12" r="10"/>
<circle cx="12" cy="12" r="2"/>
<path d="M17,6h-2c-0.553,0-1,0.447-1,1c0,0.43,0.274,0.789,0.655,0.93L7.586,15H7c-0.553,0-1,0.447-1,1s0.447,1,1,1
	c0,0.553,0.447,1,1,1s1-0.447,1-1v-0.586l7.07-7.07C16.211,9.726,16.57,10,17,10c0.553,0,1-0.447,1-1V7C18,6.447,17.553,6,17,6z"/>
</svg>