<?xml version="1.0" encoding="utf-8"?>
<!-- Generator: Adobe Illustrator 25.0.1, SVG Export Plug-In . SVG Version: 6.00 Build 0)  -->
<svg version="1.1" id="Layer_1" xmlns="http://www.w3.org/2000/svg" xmlns:xlink="http://www.w3.org/1999/xlink" x="0px" y="0px"
	 viewBox="0 0 24 24" style="enable-background:new 0 0 24 24;" xml:space="preserve">
<style type="text/css">
	.st0{opacity:0.35;enable-background:new    ;}
</style>
<path class="st0" d="M23,8v8c0,1.7-1.3,3-3,3H4c-1.7,0-3-1.3-3-3V8c0-1.7,1.3-3,3-3h16C21.7,5,23,6.3,23,8z"/>
<path d="M19.7,14.6L18.4,13c0.3-0.6,0.6-1.3,0.6-2c0-2.2-1.8-4-4-4s-4,1.8-4,4s1.8,4,4,4c0.4,0,0.7-0.1,1.1-0.2l1.2,1.6
	c0.3,0.4,0.7,0.6,1.2,0.6c0.3,0,0.6-0.1,0.9-0.3C20.1,16.2,20.2,15.2,19.7,14.6z M13,11c0-1.1,0.9-2,2-2s2,0.9,2,2s-0.9,2-2,2
	S13,12.1,13,11z"/>
</svg>