<?xml version="1.0" encoding="iso-8859-1"?>
<!-- Generator: Adobe Illustrator 25.0.0, SVG Export Plug-In . SVG Version: 6.00 Build 0)  -->
<svg version="1.1" id="Layer_1" xmlns="http://www.w3.org/2000/svg" xmlns:xlink="http://www.w3.org/1999/xlink" x="0px" y="0px"
	 viewBox="0 0 24 24" style="enable-background:new 0 0 24 24;" xml:space="preserve">
<g style="opacity:0.35;">
	<g>
		<path d="M17.782,5.057C16.522,3.212,14.403,2,12,2C8.803,2,6.113,4.145,5.275,7.073C2.86,7.427,1,9.487,1,12c0,2.761,2.239,5,5,5
			h11c3.314,0,6-2.686,6-6C23,7.952,20.726,5.441,17.782,5.057z"/>
	</g>
</g>
<path d="M17,20c0,0.552,0.448,1,1,1s1-0.448,1-1c0-0.332-0.362-1.029-0.65-1.532c-0.155-0.271-0.544-0.271-0.7,0
	C17.362,18.971,17,19.668,17,20z"/>
<path d="M13,21c0,0.552,0.448,1,1,1s1-0.448,1-1c0-0.332-0.362-1.029-0.65-1.532c-0.155-0.271-0.544-0.271-0.7,0
	C13.362,19.971,13,20.668,13,21z"/>
<path d="M11.966,14.938c-0.143-0.534-0.688-0.852-1.225-0.707l-1.327,0.356l0.356-1.327c0.143-0.533-0.173-1.082-0.707-1.225
	c-0.535-0.145-1.082,0.175-1.225,0.707l-0.356,1.327l-0.972-0.972c-0.391-0.391-1.023-0.391-1.414,0s-0.391,1.023,0,1.414
	l0.972,0.972l-1.327,0.356c-0.534,0.143-0.85,0.691-0.707,1.225C4.154,17.51,4.558,17.804,5,17.804c0.085,0,0.172-0.011,0.259-0.034
	l1.327-0.356L6.23,18.741c-0.143,0.533,0.173,1.082,0.707,1.225C7.024,19.989,7.111,20,7.197,20c0.441,0,0.846-0.295,0.965-0.741
	l0.356-1.327l0.972,0.972c0.195,0.195,0.451,0.293,0.707,0.293s0.512-0.098,0.707-0.293c0.391-0.391,0.391-1.023,0-1.414
	l-0.972-0.972l1.327-0.356C11.792,16.02,12.109,15.471,11.966,14.938z"/>
</svg>