<?xml version="1.0" encoding="iso-8859-1"?>
<!-- Generator: Adobe Illustrator 25.2.1, SVG Export Plug-In . SVG Version: 6.00 Build 0)  -->
<svg version="1.1" id="&#x421;&#x43B;&#x43E;&#x439;_1"
	 xmlns="http://www.w3.org/2000/svg" xmlns:xlink="http://www.w3.org/1999/xlink" x="0px" y="0px" viewBox="0 0 24 24"
	 style="enable-background:new 0 0 24 24;" xml:space="preserve">
<g style="opacity:0.35;enable-background:new    ;">
	<path d="M17.782,5.057C16.522,3.212,14.403,2,12,2C8.803,2,6.113,4.145,5.275,7.073C2.86,7.427,1,9.487,1,12c0,2.761,2.239,5,5,5
		h11c3.314,0,6-2.686,6-6C23,7.952,20.726,5.441,17.782,5.057z"/>
</g>
<g>
	<path d="M15.966,16.938c-0.143-0.534-0.688-0.852-1.225-0.707l-1.327,0.356l0.356-1.327c0.143-0.533-0.173-1.082-0.707-1.225
		c-0.535-0.145-1.082,0.175-1.225,0.707l-0.356,1.327l-0.972-0.972c-0.391-0.391-1.023-0.391-1.414,0s-0.391,1.023,0,1.414
		l0.972,0.972l-1.327,0.356c-0.534,0.143-0.85,0.691-0.707,1.225c0.12,0.446,0.524,0.74,0.966,0.74c0.085,0,0.172-0.011,0.259-0.034
		l1.327-0.356l-0.356,1.327c-0.143,0.533,0.173,1.082,0.707,1.225C11.024,21.989,11.111,22,11.197,22
		c0.441,0,0.846-0.295,0.965-0.741l0.356-1.327l0.972,0.972c0.195,0.195,0.451,0.293,0.707,0.293s0.512-0.098,0.707-0.293
		c0.391-0.391,0.391-1.023,0-1.414l-0.972-0.972l1.327-0.356C15.792,18.02,16.109,17.471,15.966,16.938z"/>
</g>
</svg>