<svg xmlns="http://www.w3.org/2000/svg"  viewBox="0 0 24 24" width="24px" height="24px"><path d="M11.662,3.112c-0.801-0.277-1.693-0.026-2.224,0.639L6.039,8H5c-1.654,0-3,1.346-3,3v2	c0,1.654,1.346,3,3,3h1.039l3.399,4.249C9.825,20.733,10.404,21,11,21c0.222,0,0.445-0.037,0.662-0.112	C12.464,20.606,13,19.85,13,19V5C13,4.15,12.464,3.394,11.662,3.112z" opacity=".35"/><path d="M20,15c-0.256,0-0.512-0.098-0.707-0.293l-4-4c-0.391-0.391-0.391-1.023,0-1.414s1.023-0.391,1.414,0l4,4	c0.391,0.391,0.391,1.023,0,1.414C20.512,14.902,20.256,15,20,15z"/><path d="M16,15c-0.256,0-0.512-0.098-0.707-0.293c-0.391-0.391-0.391-1.023,0-1.414l4-4c0.391-0.391,1.023-0.391,1.414,0	s0.391,1.023,0,1.414l-4,4C16.512,14.902,16.256,15,16,15z"/></svg>