<?xml version="1.0" encoding="iso-8859-1"?>
<!-- Generator: Adobe Illustrator 24.3.0, SVG Export Plug-In . SVG Version: 6.00 Build 0)  -->
<svg version="1.1" id="Layer_1" xmlns="http://www.w3.org/2000/svg" xmlns:xlink="http://www.w3.org/1999/xlink" x="0px" y="0px"
	 viewBox="0 0 24 24" style="enable-background:new 0 0 24 24;" xml:space="preserve">
<path style="opacity:0.35;" d="M18,21H6c-1.657,0-3-1.343-3-3V7h18v11C21,19.657,19.657,21,18,21z"/>
<path d="M21,7H3V6c0-1.657,1.343-3,3-3h12c1.657,0,3,1.343,3,3V7z"/>
<path d="M7,18c-0.23,0-0.462-0.079-0.65-0.241c-0.419-0.359-0.468-0.99-0.108-1.409l2.442-2.85l-2.442-2.85
	c-0.359-0.419-0.311-1.05,0.108-1.409c0.418-0.36,1.05-0.312,1.41,0.108l3,3.5c0.321,0.374,0.321,0.927,0,1.301l-3,3.5
	C7.562,17.882,7.281,18,7,18z"/>
<path d="M17,18h-4c-0.552,0-1-0.447-1-1s0.448-1,1-1h4c0.552,0,1,0.447,1,1S17.552,18,17,18z"/>
</svg>