<?xml version="1.0" encoding="iso-8859-1"?>
<!-- Generator: Adobe Illustrator 25.2.1, SVG Export Plug-In . SVG Version: 6.00 Build 0)  -->
<svg version="1.1" id="&#x421;&#x43B;&#x43E;&#x439;_1"
	 xmlns="http://www.w3.org/2000/svg" xmlns:xlink="http://www.w3.org/1999/xlink" x="0px" y="0px" viewBox="0 0 24 24"
	 style="enable-background:new 0 0 24 24;" xml:space="preserve">
<path style="opacity:0.35;enable-background:new    ;" d="M19.483,7.192C18.345,4.161,15.429,2,12,2
	C7.888,2,4.504,5.104,4.055,9.095C1.746,9.538,0,11.562,0,14c0,2.761,2.239,5,5,5h13c3.314,0,6-2.686,6-6
	C24,10.199,22.078,7.854,19.483,7.192z"/>
<g>
	<circle cx="12" cy="21" r="1"/>
	<circle cx="12" cy="13" r="1"/>
	<circle cx="14" cy="17" r="1"/>
	<circle cx="10" cy="17" r="1"/>
	<polygon points="14.359,16.067 13,15.5 13,13 11.102,12.565 9.102,16.559 9.777,17.973 11,18.5 11,21 12.894,21.434 14.894,17.439 
			"/>
</g>
<path d="M6.874,19.728c-0.368,1.011-1.509,1.526-2.546,1.148s-1.581-1.505-1.212-2.516c0.221-0.608,1.367-1.638,2.243-2.362
	c0.472-0.391,1.203-0.124,1.316,0.479C6.88,17.595,7.095,19.12,6.874,19.728z"/>
<path d="M20.874,19.728c-0.368,1.011-1.509,1.526-2.546,1.148s-1.581-1.505-1.212-2.516c0.221-0.608,1.367-1.638,2.243-2.362
	c0.472-0.391,1.203-0.124,1.316,0.479C20.88,17.595,21.095,19.12,20.874,19.728z"/>
</svg>