<?xml version="1.0" encoding="iso-8859-1"?>
<!-- Generator: Adobe Illustrator 24.3.0, SVG Export Plug-In . SVG Version: 6.00 Build 0)  -->
<svg version="1.1" id="Layer_1" xmlns="http://www.w3.org/2000/svg" xmlns:xlink="http://www.w3.org/1999/xlink" x="0px" y="0px"
	 viewBox="0 0 24 24" style="enable-background:new 0 0 24 24;" xml:space="preserve">
<path d="M20,20v-7.184C19.686,12.928,19.353,13,19,13s-0.686-0.072-1-0.184V20c0,0.552,0.448,1,1,1C19.552,21,20,20.552,20,20z"/>
<path d="M18,4v3.184C18.314,7.072,18.647,7,19,7s0.686,0.072,1,0.184V4c0-0.552-0.448-1-1-1C18.448,3,18,3.448,18,4z"/>
<circle style="opacity:0.35;" cx="19" cy="10" r="3"/>
<path d="M13,20v-2.184C12.686,17.928,12.353,18,12,18s-0.686-0.072-1-0.184V20c0,0.552,0.448,1,1,1C12.552,21,13,20.552,13,20z"/>
<path d="M11,4v8.184C11.314,12.072,11.647,12,12,12s0.686,0.072,1,0.184V4c0-0.552-0.448-1-1-1C11.448,3,11,3.448,11,4z"/>
<circle style="opacity:0.35;" cx="12" cy="15" r="3"/>
<path d="M6,20v-7.184C5.686,12.928,5.353,13,5,13s-0.686-0.072-1-0.184V20c0,0.552,0.448,1,1,1C5.552,21,6,20.552,6,20z"/>
<path d="M4,4v3.184C4.314,7.072,4.647,7,5,7s0.686,0.072,1,0.184V4c0-0.552-0.448-1-1-1C4.448,3,4,3.448,4,4z"/>
<circle style="opacity:0.35;" cx="5" cy="10" r="3"/>
</svg>