<?xml version="1.0" encoding="iso-8859-1"?>
<!-- Generator: Adobe Illustrator 24.3.0, SVG Export Plug-In . SVG Version: 6.00 Build 0)  -->
<svg version="1.1" id="Layer_1" xmlns="http://www.w3.org/2000/svg" xmlns:xlink="http://www.w3.org/1999/xlink" x="0px" y="0px"
	 viewBox="0 0 24 24" style="enable-background:new 0 0 24 24;" xml:space="preserve">
<path d="M15,17.225c-0.411,0-0.797-0.255-0.942-0.665c-0.185-0.521,0.087-1.092,0.607-1.277C16.062,14.786,17,13.467,17,12
	s-0.938-2.786-2.335-3.282c-0.521-0.186-0.792-0.757-0.607-1.277s0.758-0.792,1.277-0.607C17.527,7.612,19,9.688,19,12
	s-1.473,4.388-3.665,5.167C15.225,17.206,15.111,17.225,15,17.225z"/>
<path d="M13,10v4c1.105,0,2-0.896,2-2C15,10.895,14.105,10,13,10z"/>
<path style="opacity:0.35;" d="M11.662,3.112c-0.801-0.277-1.693-0.026-2.224,0.639L6.039,8H5c-1.654,0-3,1.346-3,3v2
	c0,1.654,1.346,3,3,3h1.039l3.399,4.249C9.825,20.733,10.404,21,11,21c0.222,0,0.445-0.037,0.662-0.112
	C12.464,20.606,13,19.85,13,19V5C13,4.15,12.464,3.394,11.662,3.112z"/>
</svg>