<svg xmlns="http://www.w3.org/2000/svg"  viewBox="0 0 24 24" width="24px" height="24px"><path d="M9,20c0,1.657,1.343,3,3,3s3-1.343,3-3H9z"/><path d="M19,10.667l0-1.373c0-3.833-2.953-7.175-6.785-7.29C8.251,1.884,5,5.062,5,9v1.667	c0,1.515-0.491,2.988-1.4,4.2L2.45,16.4C2.158,16.789,2,17.263,2,17.75v0C2,18.993,3.007,20,4.25,20h15.5	c1.243,0,2.25-1.007,2.25-2.25v0c0-0.487-0.158-0.961-0.45-1.35l-1.15-1.533C19.491,13.655,19,12.181,19,10.667z" opacity=".35"/><path d="M22,10c-0.552,0-1-0.447-1-1c0-1.244-0.254-2.455-0.754-3.6c-0.222-0.506,0.009-1.096,0.515-1.316	c0.506-0.223,1.096,0.009,1.317,0.516C22.69,5.997,23,7.478,23,9C23,9.553,22.552,10,22,10z"/><path d="M2,10c-0.552,0-1-0.447-1-1c0-1.522,0.31-3.003,0.922-4.4c0.221-0.507,0.811-0.738,1.317-0.516	C3.745,4.305,3.976,4.895,3.754,5.4C3.254,6.545,3,7.756,3,9C3,9.553,2.552,10,2,10z"/></svg>