<?xml version="1.0" encoding="iso-8859-1"?>
<!-- Generator: Adobe Illustrator 24.3.0, SVG Export Plug-In . SVG Version: 6.00 Build 0)  -->
<svg version="1.1" id="Layer_1" xmlns="http://www.w3.org/2000/svg" xmlns:xlink="http://www.w3.org/1999/xlink" x="0px" y="0px"
	 viewBox="0 0 24 24" style="enable-background:new 0 0 24 24;" xml:space="preserve">
<path d="M12,15L12,15c-2.209,0-4-1.791-4-4V6c0-2.209,1.791-4,4-4h0c2.209,0,4,1.791,4,4v5C16,13.209,14.209,15,12,15z"/>
<path d="M19,14c-2.761,0-5,2.239-5,5s2.239,5,5,5s5-2.239,5-5S21.761,14,19,14z M19,22c-1.657,0-3-1.343-3-3s1.343-3,3-3
	s3,1.343,3,3S20.657,22,19,22z"/>
<rect x="18" y="14.757" transform="matrix(0.7071 0.7071 -0.7071 0.7071 19 -7.8701)" width="2" height="8.485"/>
<path style="opacity:0.35;" d="M12,19c0-0.703,0.106-1.381,0.299-2.021C12.199,16.984,12.102,17,12,17
	c-2.331,0-4.348-1.331-5.34-3.273c-0.316-0.619-1.048-0.902-1.716-0.711h0c-0.911,0.26-1.36,1.295-0.922,2.135
	c1.201,2.308,3.378,4.01,5.979,4.604V20c0,1.105,0.895,2,2,2c0.221,0,0.43-0.044,0.629-0.111C12.229,21.008,12,20.031,12,19z"/>
</svg>