<?xml version="1.0" encoding="iso-8859-1"?>
<!-- Generator: Adobe Illustrator 24.3.0, SVG Export Plug-In . SVG Version: 6.00 Build 0)  -->
<svg version="1.1" id="Layer_1" xmlns="http://www.w3.org/2000/svg" xmlns:xlink="http://www.w3.org/1999/xlink" x="0px" y="0px"
	 viewBox="0 0 24 24" style="enable-background:new 0 0 24 24;" xml:space="preserve">
<path d="M14.5,3c-0.176,0-4.824,0-5,0C8.672,3,8,3.672,8,4.5S8.672,6,9.5,6c0.176,0,4.824,0,5,0C15.328,6,16,5.328,16,4.5
	S15.328,3,14.5,3z"/>
<polygon style="opacity:0.35;" points="15,9.768 15,4 9,4 9,9.768 6.091,13 17.909,13 "/>
<polygon style="opacity:0.35;" points="19,20 6,20 6,14 18,14 "/>
<path d="M21.353,16.827L17.909,13H6.091l-3.445,3.827c-0.743,0.826-0.862,2.003-0.272,2.983C2.838,20.579,3.719,21,4.617,21h6.246
	h2.274h6.246c0.898,0,1.779-0.421,2.242-1.19C22.216,18.83,22.096,17.653,21.353,16.827z M16.5,19c-0.828,0-1.5-0.672-1.5-1.5
	s0.672-1.5,1.5-1.5s1.5,0.672,1.5,1.5S17.328,19,16.5,19z M9,17c-0.552,0-1-0.448-1-1s0.448-1,1-1s1,0.448,1,1S9.552,17,9,17z"/>
</svg>