<?xml version="1.0" encoding="iso-8859-1"?>
<!-- Generator: Adobe Illustrator 25.0.0, SVG Export Plug-In . SVG Version: 6.00 Build 0)  -->
<svg version="1.1" id="Layer_1" xmlns="http://www.w3.org/2000/svg" xmlns:xlink="http://www.w3.org/1999/xlink" x="0px" y="0px"
	 viewBox="0 0 24 24" style="enable-background:new 0 0 24 24;" xml:space="preserve">
<g style="opacity:0.35;">
	<g>
		<path d="M17.782,5.057C16.522,3.212,14.403,2,12,2C8.803,2,6.113,4.145,5.275,7.073C2.86,7.427,1,9.487,1,12c0,2.761,2.239,5,5,5
			h11c3.314,0,6-2.686,6-6C23,7.952,20.726,5.441,17.782,5.057z"/>
	</g>
</g>
<path d="M7,20c0,0.552-0.448,1-1,1s-1-0.448-1-1c0-0.332,0.362-1.029,0.65-1.532c0.155-0.271,0.544-0.271,0.7,0
	C6.638,18.971,7,19.668,7,20z"/>
<path d="M11,21c0,0.552-0.448,1-1,1s-1-0.448-1-1c0-0.332,0.362-1.029,0.65-1.532c0.155-0.271,0.544-0.271,0.7,0
	C10.638,19.971,11,20.668,11,21z"/>
<path d="M15,20c0,0.552-0.448,1-1,1s-1-0.448-1-1c0-0.332,0.362-1.029,0.65-1.532c0.155-0.271,0.544-0.271,0.7,0
	C14.638,18.971,15,19.668,15,20z"/>
<path d="M19,21c0,0.552-0.448,1-1,1s-1-0.448-1-1c0-0.332,0.362-1.029,0.65-1.532c0.155-0.271,0.544-0.271,0.7,0
	C18.638,19.971,19,20.668,19,21z"/>
</svg>