<?xml version="1.0" encoding="iso-8859-1"?>
<!-- Generator: Adobe Illustrator 25.0.0, SVG Export Plug-In . SVG Version: 6.00 Build 0)  -->
<svg version="1.1" id="Layer_1" xmlns="http://www.w3.org/2000/svg" xmlns:xlink="http://www.w3.org/1999/xlink" x="0px" y="0px"
	 viewBox="0 0 24 24" style="enable-background:new 0 0 24 24;" xml:space="preserve">
<g style="opacity:0.35;">
	<g>
		<path d="M17.782,5.057C16.522,3.212,14.403,2,12,2C8.803,2,6.113,4.145,5.275,7.073C2.86,7.427,1,9.487,1,12c0,2.761,2.239,5,5,5
			h11c3.314,0,6-2.686,6-6C23,7.952,20.726,5.441,17.782,5.057z"/>
	</g>
</g>
<path d="M11.559,22.762l-1.323-1.985c-0.314-0.47-0.314-1.083,0-1.554l1.323-1.985c0.21-0.315,0.673-0.315,0.883,0l1.323,1.985
	c0.314,0.47,0.314,1.083,0,1.554l-1.323,1.985C12.231,23.077,11.769,23.077,11.559,22.762z"/>
<path d="M17.169,18.821l-0.993-1.489c-0.235-0.353-0.235-0.812,0-1.165l0.993-1.489c0.157-0.236,0.504-0.236,0.662,0l0.993,1.489
	c0.235,0.353,0.235,0.812,0,1.165l-0.993,1.489C17.674,19.057,17.326,19.057,17.169,18.821z"/>
<path d="M6.169,18.821l-0.993-1.489c-0.235-0.353-0.235-0.812,0-1.165l0.993-1.489c0.157-0.236,0.504-0.236,0.662,0l0.993,1.489
	c0.235,0.353,0.235,0.812,0,1.165l-0.993,1.489C6.674,19.057,6.326,19.057,6.169,18.821z"/>
</svg>