<?xml version="1.0" encoding="iso-8859-1"?>
<!-- Generator: Adobe Illustrator 25.0.0, SVG Export Plug-In . SVG Version: 6.00 Build 0)  -->
<svg version="1.1" id="Layer_1" xmlns="http://www.w3.org/2000/svg" xmlns:xlink="http://www.w3.org/1999/xlink" x="0px" y="0px"
	 viewBox="0 0 24 24" style="enable-background:new 0 0 24 24;" xml:space="preserve">
<path style="opacity:0.35;" d="M20.5,17.467c-0.829,0-1.5-0.672-1.5-1.5V12c0-3.859-3.14-7-7-7s-7,3.141-7,7v3.967
	c0,0.828-0.671,1.5-1.5,1.5S2,16.795,2,15.967V12C2,6.486,6.486,2,12,2s10,4.486,10,10v3.967C22,16.795,21.329,17.467,20.5,17.467z"
	/>
<path d="M20,21h-2c-1.105,0-2-0.895-2-2v-4c0-1.105,0.895-2,2-2h2c1.105,0,2,0.895,2,2v4C22,20.105,21.105,21,20,21z"/>
<path d="M6,21H4c-1.105,0-2-0.895-2-2v-4c0-1.105,0.895-2,2-2h2c1.105,0,2,0.895,2,2v4C8,20.105,7.105,21,6,21z"/>
</svg>