<?xml version="1.0" encoding="iso-8859-1"?>
<!-- Generator: Adobe Illustrator 24.3.0, SVG Export Plug-In . SVG Version: 6.00 Build 0)  -->
<svg version="1.1" id="Layer_1" xmlns="http://www.w3.org/2000/svg" xmlns:xlink="http://www.w3.org/1999/xlink" x="0px" y="0px"
	 viewBox="0 0 24 24" style="enable-background:new 0 0 24 24;" xml:space="preserve">
<path style="opacity:0.35;" d="M14,8h-4C8.895,8,8,7.105,8,6V4c0-1.105,0.895-2,2-2h4c1.105,0,2,0.895,2,2v2C16,7.105,15.105,8,14,8
	z"/>
<path style="opacity:0.35;" d="M9,19v-2c0-1.105,0.895-2,2-2h2c1.105,0,2,0.895,2,2v2c0,1.105-0.895,2-2,2h-2
	C9.895,21,9,20.105,9,19z"/>
<path style="opacity:0.35;" d="M17,19v-2c0-1.105,0.895-2,2-2h2c1.105,0,2,0.895,2,2v2c0,1.105-0.895,2-2,2h-2
	C17.895,21,17,20.105,17,19z"/>
<path style="opacity:0.35;" d="M1,19v-2c0-1.105,0.895-2,2-2h2c1.105,0,2,0.895,2,2v2c0,1.105-0.895,2-2,2H3C1.895,21,1,20.105,1,19
	z"/>
<path d="M13,10V8h-2v2H6c-1.657,0-3,1.343-3,3v2h2v-2c0-0.552,0.448-1,1-1h5v3h2v-3h5c0.552,0,1,0.448,1,1v2h2v-2
	c0-1.657-1.343-3-3-3H13z"/>
</svg>