<?xml version="1.0" encoding="iso-8859-1"?>
<!-- Generator: Adobe Illustrator 24.3.0, SVG Export Plug-In . SVG Version: 6.00 Build 0)  -->
<svg version="1.1" id="Layer_1" xmlns="http://www.w3.org/2000/svg" xmlns:xlink="http://www.w3.org/1999/xlink" x="0px" y="0px"
	 viewBox="0 0 24 24" style="enable-background:new 0 0 24 24;" xml:space="preserve">
<path style="opacity:0.35;" d="M18,21H6c-1.657,0-3-1.343-3-3v-8c0-1.657,1.343-3,3-3h12c1.657,0,3,1.343,3,3v8
	C21,19.657,19.657,21,18,21z"/>
<path d="M8,7c0-2.209,1.791-4,4-4s4,1.791,4,4h2c0-3.314-2.686-6-6-6S6,3.686,6,7H8z"/>
<path d="M12,12c-1.105,0-2,0.895-2,2s0.895,2,2,2s2-0.895,2-2S13.105,12,12,12z"/>
</svg>