<svg xmlns="http://www.w3.org/2000/svg"  viewBox="0 0 24 24" width="24px" height="24px"><path d="M23,16H1V8c0-1.657,1.343-3,3-3h16c1.657,0,3,1.343,3,3V16z" opacity=".35"/><path d="M23,16v1c0,1.105-0.895,2-2,2l-5.542,0c-0.691,0-1.368-0.337-1.696-0.945C13.423,17.428,12.759,17,12,17 c-0.759,0-1.423,0.428-1.761,1.055C9.91,18.663,9.233,19,8.542,19L3,19c-1.105,0-2-0.895-2-2v-1H23z"/><path d="M4.5,14L4.5,14C3.672,14,3,13.328,3,12.5v-3C3,8.672,3.672,8,4.5,8h0C5.328,8,6,8.672,6,9.5v3C6,13.328,5.328,14,4.5,14z"/><path d="M9.5,14L9.5,14C8.672,14,8,13.328,8,12.5v-3C8,8.672,8.672,8,9.5,8h0C10.328,8,11,8.672,11,9.5v3 C11,13.328,10.328,14,9.5,14z"/><path d="M14.5,14L14.5,14c-0.828,0-1.5-0.672-1.5-1.5v-3C13,8.672,13.672,8,14.5,8h0C15.328,8,16,8.672,16,9.5v3 C16,13.328,15.328,14,14.5,14z"/><path d="M19.5,14L19.5,14c-0.828,0-1.5-0.672-1.5-1.5v-3C18,8.672,18.672,8,19.5,8h0C20.328,8,21,8.672,21,9.5v3 C21,13.328,20.328,14,19.5,14z"/></svg>