<?xml version="1.0" encoding="utf-8"?>
<!-- Generator: Adobe Illustrator 25.0.1, SVG Export Plug-In . SVG Version: 6.00 Build 0)  -->
<svg version="1.1" id="Layer_1" xmlns="http://www.w3.org/2000/svg" xmlns:xlink="http://www.w3.org/1999/xlink" x="0px" y="0px"
	 viewBox="0 0 24 24" style="enable-background:new 0 0 24 24;" xml:space="preserve">
<style type="text/css">
	.st0{opacity:0.35;enable-background:new    ;}
</style>
<path class="st0" d="M18,21H6c-1.7,0-3-1.3-3-3V6c0-1.7,1.3-3,3-3h12c1.7,0,3,1.3,3,3v12C21,19.7,19.7,21,18,21z"/>
<path d="M16,9H8C7.4,9,7,8.6,7,8l0,0c0-0.6,0.4-1,1-1h8c0.6,0,1,0.4,1,1l0,0C17,8.6,16.6,9,16,9z"/>
<path d="M16,13H8c-0.6,0-1-0.4-1-1l0,0c0-0.6,0.4-1,1-1h8c0.6,0,1,0.4,1,1l0,0C17,12.6,16.6,13,16,13z"/>
<path d="M16,17H8c-0.6,0-1-0.4-1-1l0,0c0-0.6,0.4-1,1-1h8c0.6,0,1,0.4,1,1l0,0C17,16.6,16.6,17,16,17z"/>
</svg>