<svg xmlns="http://www.w3.org/2000/svg" xmlns:xlink="http://www.w3.org/1999/xlink" viewBox="0,0,256,256" width="24px" height="24px" fill-rule="nonzero"><g fill="#000000" fill-rule="nonzero" stroke="none" stroke-width="1" stroke-linecap="butt" stroke-linejoin="miter" stroke-miterlimit="10" stroke-dasharray="" stroke-dashoffset="0" font-family="none" font-weight="none" font-size="none" text-anchor="none" style="mix-blend-mode: normal"><g transform="translate(257.02452,0.00583) rotate(90) scale(10.66667,10.66667)"><path d="M15.446,2.197c-0.554,-0.213 -1.182,-0.081 -1.602,0.338c-0.42,0.42 -0.553,1.048 -0.338,1.603c0.327,0.846 0.494,1.725 0.494,2.612c0,3.998 -3.252,7.25 -7.25,7.25c-0.887,0 -1.766,-0.167 -2.612,-0.495c-0.554,-0.213 -1.182,-0.081 -1.603,0.338c-0.42,0.42 -0.553,1.048 -0.338,1.602c1.541,3.982 5.291,6.555 9.553,6.555c5.652,0 10.25,-4.598 10.25,-10.25c0,-4.262 -2.573,-8.012 -6.554,-9.553z" opacity="0.35"></path></g></g></svg>