<?xml version="1.0" encoding="iso-8859-1"?>
<!-- Generator: Adobe Illustrator 25.0.0, SVG Export Plug-In . SVG Version: 6.00 Build 0)  -->
<svg version="1.1" id="Layer_1" xmlns="http://www.w3.org/2000/svg" xmlns:xlink="http://www.w3.org/1999/xlink" x="0px" y="0px"
	 viewBox="0 0 24 24" style="enable-background:new 0 0 24 24;" xml:space="preserve">
<path style="opacity:0.35;" d="M16.227,14.825C12.7,14.131,9.869,11.3,9.175,7.773C8.958,6.674,8.95,5.606,9.111,4.596
	c0.17-1.06-0.94-1.892-1.884-1.379C3.654,5.16,1.397,9.215,2.142,13.71c0.685,4.132,4.016,7.463,8.147,8.148
	c4.495,0.745,8.551-1.512,10.494-5.086c0.513-0.944-0.318-2.053-1.379-1.884C18.394,15.05,17.326,15.042,16.227,14.825z"/>
<path style="fill-rule:evenodd;clip-rule:evenodd;" d="M14.5,13c-0.386,0-7.614,0-8,0C5.672,13,5,13.672,5,14.5S5.672,16,6.5,16
	c0.386,0,7.614,0,8,0c0.828,0,1.5-0.672,1.5-1.5S15.328,13,14.5,13z"/>
<path style="fill-rule:evenodd;clip-rule:evenodd;" d="M14.5,19c-0.386,0-11.614,0-12,0C1.672,19,1,19.672,1,20.5S1.672,22,2.5,22
	c0.386,0,11.614,0,12,0c0.828,0,1.5-0.672,1.5-1.5S15.328,19,14.5,19z"/>
<path style="fill-rule:evenodd;clip-rule:evenodd;" d="M21.5,7c-0.386,0-11.614,0-12,0C8.672,7,8,7.672,8,8.5S8.672,10,9.5,10
	c0.386,0,11.614,0,12,0c0.828,0,1.5-0.672,1.5-1.5S22.328,7,21.5,7z"/>
</svg>