<?xml version="1.0" encoding="iso-8859-1"?>
<!-- Generator: Adobe Illustrator 24.1.2, SVG Export Plug-In . SVG Version: 6.00 Build 0)  -->
<svg version="1.1" xmlns="http://www.w3.org/2000/svg" xmlns:xlink="http://www.w3.org/1999/xlink" x="0px" y="0px"
	 viewBox="0 0 24 24" style="enable-background:new 0 0 24 24;" xml:space="preserve">
<g id="weight" style="display:none;">
</g>
<g id="Layer_1">
</g>
<g id="online">
</g>
<g id="open_envelope">
</g>
<g id="send_mass_email">
</g>
<g id="high_importance">
</g>
<g id="rating">
</g>
<g id="filled_sent">
</g>
<g id="invisible">
</g>
<g id="lol">
</g>
<g id="question">
</g>
<g id="filled-chat">
</g>
<g id="email-open">
</g>
<g id="send">
</g>
<g id="new-message">
</g>
<g id="gmail_login">
</g>
<g id="message_group">
</g>
<g id="private2">
</g>
<g id="inbox">
</g>
<g id="neutral_emotion">
</g>
<g id="private">
</g>
<g id="invite">
</g>
<g id="quote">
</g>
<g id="parse_from_clipboard">
</g>
<g id="quote_right">
</g>
<g id="in_love">
</g>
<g id="rss">
</g>
<g id="reviewer-male">
</g>
<g id="popular_topic">
</g>
<g id="star_half_empty">
</g>
<g id="my-topic">
</g>
<g id="cool">
</g>
<g id="guest_female">
</g>
<g id="offline">
</g>
<g id="thinking_bubble">
</g>
<g id="align_right">
</g>
<g id="crying">
</g>
<g id="urgent_message">
</g>
<g id="mailbox_with_letter">
</g>
<g id="poll_topic">
</g>
<g id="renew_subscription">
</g>
<g id="spam">
</g>
<g id="broken_link">
</g>
<g id="composing_mail">
</g>
<g id="reading_confirmation">
</g>
<g id="wink">
</g>
<g id="poo">
</g>
<g id="forward_message">
</g>
<g id="do_not_disturb">
</g>
<g id="reply">
</g>
<g id="moderator_male">
</g>
<g id="filled_topic">
</g>
<g id="comment_discussion">
</g>
<g id="delete_message">
</g>
<g id="retweet" style="display:none;">
</g>
<g id="low_importance">
</g>
<g id="cancel_subscription">
</g>
<g id="delete_message_1_">
</g>
<g id="copy_link">
</g>
<g id="angry">
</g>
<g id="message_squared">
</g>
<g id="address_book_2">
</g>
<g id="star_half">
</g>
<g id="speaker_notes">
</g>
<g id="send_letter">
</g>
<g id="surprised">
</g>
<g id="hashtag-large">
</g>
<g id="comments">
</g>
<g id="delete-link">
</g>
<g id="response">
</g>
<g id="confused">
</g>
<g id="crazy">
</g>
<g id="send_comment">
</g>
<g id="evil">
</g>
<g id="mailbox-opened-flag-down">
</g>
<g id="smiling_face_with_heart">
</g>
<g id="angel">
</g>
<g id="private_emoticon">
</g>
<g id="dissapointed">
</g>
<g id="sleeping">
</g>
<g id="computer_chat">
</g>
<g id="mailbox_opened_flag_up">
</g>
<g id="deleted_message">
</g>
<g id="public">
</g>
<g id="nerd">
</g>
<g id="outbox">
</g>
<g id="topic_push_notification">
</g>
<g id="subscription">
</g>
<g id="mailing">
</g>
<g id="postcard">
</g>
<g id="closed_topic">
</g>
<g id="moved_topic">
</g>
<g id="kiss">
</g>
<g id="tonque_out">
</g>
<g id="silenced">
</g>
<g id="vomited">
</g>
<g id="no_chat">
</g>
<g id="edit_message">
</g>
<g id="bored">
</g>
<g id="unknown_status">
</g>
<g id="filled_speech_bubble_with_dots">
</g>
<g id="new_letter">
</g>
<g id="moderator_female">
</g>
<g id="no_reminders">
	<path d="M9,19c0,1.657,1.343,3,3,3s3-1.343,3-3H9z"/>
	<path style="opacity:0.35;" d="M19,9.667l0-0.373c0-3.833-2.953-7.175-6.785-7.29C8.251,1.884,5,5.062,5,9v0.667
		c0,1.515-0.491,2.988-1.4,4.2L2.45,15.4C2.158,15.789,2,16.263,2,16.75v0C2,17.993,3.007,19,4.25,19h15.5
		c1.243,0,2.25-1.007,2.25-2.25v0c0-0.487-0.158-0.961-0.45-1.35l-1.15-1.533C19.491,12.655,19,11.181,19,9.667z"/>
	<path d="M21,22c-0.256,0-0.512-0.098-0.707-0.293l-18-18c-0.391-0.391-0.391-1.023,0-1.414s1.023-0.391,1.414,0l18,18
		c0.391,0.391,0.391,1.023,0,1.414C21.512,21.902,21.256,22,21,22z"/>
</g>
<g id="send_box">
</g>
<g id="ok_message">
</g>
<g id="postcard_with_barcode">
</g>
<g id="edit_chat_history">
</g>
<g id="labels">
</g>
<g id="like_message">
</g>
<g id="under_pressure_male">
</g>
<g id="create_new-child-post">
</g>
<g id="upload_mail">
</g>
<g id="love-circled">
</g>
<g id="chat_message_sent">
</g>
</svg>