<?xml version="1.0" encoding="iso-8859-1"?>
<!-- Generator: Adobe Illustrator 25.0.0, SVG Export Plug-In . SVG Version: 6.00 Build 0)  -->
<svg version="1.1" id="Layer_1" xmlns="http://www.w3.org/2000/svg" xmlns:xlink="http://www.w3.org/1999/xlink" x="0px" y="0px"
	 viewBox="0 0 24 24" style="enable-background:new 0 0 24 24;" xml:space="preserve">
<ellipse transform="matrix(0.7071 -0.7071 0.7071 0.7071 -13.5058 8.4646)" cx="3.465" cy="20.535" rx="1.429" ry="1.5"/>
<g style="opacity:0.35;">
	<g>
		<path d="M20.253,7.179l-3.432-3.432c-1.172-1.172-3.071-1.172-4.243,0l-2.414,2.414c-1.985-0.353-4.059-0.087-5.9,0.827
			c-1.41,0.7-1.693,2.599-0.58,3.712l9.616,9.616c1.113,1.113,3.012,0.829,3.712-0.58c0.914-1.841,1.181-3.915,0.827-5.9
			l2.414-2.414C21.424,10.25,21.424,8.351,20.253,7.179z"/>
	</g>
</g>
<rect x="2.424" y="16.524" transform="matrix(0.7071 -0.7071 0.7071 0.7071 -10.9941 9.5049)" width="7.104" height="3"/>
</svg>