<?xml version="1.0" encoding="iso-8859-1"?>
<!-- Generator: Adobe Illustrator 24.3.0, SVG Export Plug-In . SVG Version: 6.00 Build 0)  -->
<svg version="1.1" id="Layer_1" xmlns="http://www.w3.org/2000/svg" xmlns:xlink="http://www.w3.org/1999/xlink" x="0px" y="0px"
	 viewBox="0 0 24 24" style="enable-background:new 0 0 24 24;" xml:space="preserve">
<path style="opacity:0.35;" d="M19,10c-0.278,0-2.447,0-5,0c0-2.553,0-4.722,0-5c0-1.105-0.895-2-2-2s-2,0.895-2,2
	c0,0.278,0,2.447,0,5c-2.553,0-4.722,0-5,0c-1.105,0-2,0.895-2,2c0,1.105,0.895,2,2,2c0.2,0,13.8,0,14,0c1.105,0,2-0.895,2-2
	C21,10.895,20.105,10,19,10z"/>
<path d="M12,21c1.105,0,2-0.895,2-2c0-0.278,0-2.447,0-5h-4c0,2.553,0,4.722,0,5C10,20.105,10.895,21,12,21z"/>
</svg>