<?xml version="1.0" encoding="iso-8859-1"?>
<!-- Generator: Adobe Illustrator 25.0.0, SVG Export Plug-In . SVG Version: 6.00 Build 0)  -->
<svg version="1.1" id="Layer_1" xmlns="http://www.w3.org/2000/svg" xmlns:xlink="http://www.w3.org/1999/xlink" x="0px" y="0px"
	 viewBox="0 0 24 24" style="enable-background:new 0 0 24 24;" xml:space="preserve">
<path style="opacity:0.35;enable-background:new    ;" d="M11.77,15.36l-1.12,0.62l-0.52,2.608C9.851,19.99,8.62,21,7.19,21H2V2
	c5,0,8.21,3.5,8.7,7.91l1.73,2.1C13.31,13.09,13,14.7,11.77,15.36z"/>
<path d="M16,21c-0.262,0-0.518-0.103-0.707-0.293L13.586,19H13c-0.552,0-1-0.448-1-1s0.448-1,1-1h1c0.265,0,0.52,0.105,0.707,0.293
	l0.856,0.856l1.488-4.465c0.128-0.383,0.475-0.652,0.878-0.681c0.399-0.024,0.784,0.188,0.965,0.55L20.618,17H22
	c0.552,0,1,0.448,1,1s-0.448,1-1,1h-2c-0.379,0-0.725-0.214-0.895-0.553l-0.92-1.841l-1.236,3.71
	c-0.11,0.329-0.382,0.577-0.719,0.657C16.154,20.991,16.077,21,16,21z"/>
</svg>