<?xml version="1.0" encoding="iso-8859-1"?>
<!-- Generator: Adobe Illustrator 25.2.1, SVG Export Plug-In . SVG Version: 6.00 Build 0)  -->
<svg version="1.1" id="&#x421;&#x43B;&#x43E;&#x439;_1"
	 xmlns="http://www.w3.org/2000/svg" xmlns:xlink="http://www.w3.org/1999/xlink" x="0px" y="0px" viewBox="0 0 24 24"
	 style="enable-background:new 0 0 24 24;" xml:space="preserve">
<g style="opacity:0.35;enable-background:new    ;">
	<path d="M17.782,5.057C16.522,3.212,14.403,2,12,2C8.803,2,6.113,4.145,5.275,7.073C2.86,7.427,1,9.487,1,12c0,2.761,2.239,5,5,5
		h11c3.314,0,6-2.686,6-6C23,7.952,20.726,5.441,17.782,5.057z"/>
</g>
<g>
	<path d="M3.5,21.866L3.5,21.866C3.022,21.59,2.858,20.978,3.134,20.5l4.991-8c0.276-0.478,0.888-0.642,1.366-0.366l0,0
		c0.478,0.276,0.642,0.888,0.366,1.366l-4.991,8C4.59,21.978,3.978,22.142,3.5,21.866z"/>
</g>
<g>
	<path d="M13.509,21.866L13.509,21.866c-0.478-0.276-0.642-0.888-0.366-1.366l4.991-8c0.276-0.478,0.888-0.642,1.366-0.366l0,0
		c0.478,0.276,0.642,0.888,0.366,1.366l-4.991,8C14.599,21.978,13.987,22.142,13.509,21.866z"/>
</g>
<g>
	<path d="M8.509,21.866L8.509,21.866C8.03,21.59,7.867,20.978,8.143,20.5l4.991-8c0.276-0.478,0.888-0.642,1.366-0.366l0,0
		c0.478,0.276,0.642,0.888,0.366,1.366l-4.991,8C9.599,21.978,8.987,22.142,8.509,21.866z"/>
</g>
</svg>