<?xml version="1.0" encoding="iso-8859-1"?>
<!-- Generator: Adobe Illustrator 24.3.0, SVG Export Plug-In . SVG Version: 6.00 Build 0)  -->
<svg version="1.1" id="Layer_1" xmlns="http://www.w3.org/2000/svg" xmlns:xlink="http://www.w3.org/1999/xlink" x="0px" y="0px"
	 viewBox="0 0 24 24" style="enable-background:new 0 0 24 24;" xml:space="preserve">
<circle style="opacity:0.35;" cx="7" cy="7" r="4"/>
<path d="M15,3c-1.105,0-2,0.895-2,2v4c0,1.105,0.895,2,2,2h4c1.105,0,2-0.895,2-2V5c0-1.105-0.895-2-2-2H15z"/>
<path d="M10,21H4c-0.347,0-0.668-0.18-0.851-0.475s-0.199-0.663-0.044-0.973l3-6c0.339-0.678,1.45-0.678,1.789,0l3,6
	c0.155,0.31,0.138,0.678-0.044,0.973S10.347,21,10,21z"/>
<path style="opacity:0.35;" d="M18.536,21h-4.072c-0.433,0-0.817-0.279-0.951-0.69l-1.259-3.873
	c-0.134-0.412,0.013-0.864,0.363-1.118l3.295-2.394c0.351-0.256,0.825-0.256,1.176,0l3.295,2.394
	c0.351,0.254,0.497,0.706,0.363,1.118l-1.259,3.873C19.353,20.721,18.969,21,18.536,21z"/>
</svg>