<svg xmlns="http://www.w3.org/2000/svg"  viewBox="0 0 24 24" width="24px" height="24px"><circle cx="12" cy="12" r="10" opacity=".35"/><path d="M21.124,7.921c0.249-0.094,0.464-0.271,0.577-0.544c0.587-1.409,0.308-3.094-0.838-4.24s-2.831-1.426-4.24-0.839	c-0.272,0.114-0.45,0.329-0.544,0.577C18.32,3.879,20.121,5.68,21.124,7.921z"/><path d="M2.876,7.921C3.879,5.68,5.68,3.879,7.921,2.876C7.827,2.627,7.65,2.412,7.377,2.298C5.968,1.711,4.283,1.99,3.137,3.137	s-1.426,2.831-0.838,4.24C2.412,7.649,2.627,7.827,2.876,7.921z"/><path d="M12.278,13.689v-0.034c0-0.202,0.047-0.402,0.137-0.583l2.622-5.28h-1.634c-0.495,0-0.896-0.401-0.896-0.896v0	C12.506,6.401,12.908,6,13.403,6h2.649c0.724,0,1.311,0.587,1.311,1.311v0c0,0.202-0.047,0.401-0.136,0.581l-2.61,5.277h1.85	c0.495,0,0.896,0.401,0.896,0.896v0.038c0,0.495-0.401,0.896-0.896,0.896h-2.877C12.865,15,12.278,14.413,12.278,13.689z"/><path d="M7.143,16.98v-0.026c0-0.157,0.036-0.313,0.106-0.453l2.039-4.106H8.017c-0.385,0-0.697-0.312-0.697-0.697v0	C7.32,11.312,7.632,11,8.017,11h2.06c0.563,0,1.02,0.457,1.02,1.02v0c0,0.157-0.036,0.312-0.106,0.452l-2.03,4.104H10.4	c0.385,0,0.697,0.312,0.697,0.697v0.03c0,0.385-0.312,0.697-0.697,0.697H8.162C7.599,18,7.143,17.543,7.143,16.98z"/></svg>