<?xml version="1.0" encoding="iso-8859-1"?>
<!-- Generator: Adobe Illustrator 24.1.2, SVG Export Plug-In . SVG Version: 6.00 Build 0)  -->
<svg version="1.1" xmlns="http://www.w3.org/2000/svg" xmlns:xlink="http://www.w3.org/1999/xlink" x="0px" y="0px"
	 viewBox="0 0 24 24" style="enable-background:new 0 0 24 24;" xml:space="preserve">
<g id="weight" style="display:none;">
</g>
<g id="Layer_1">
	<g style="display:none;">
		<circle style="display:inline;" cx="14" cy="4" r="4"/>
		<circle style="display:inline;" cx="7" cy="5" r="3"/>
		<path style="display:inline;opacity:0.35;" d="M16,22H6c-1.657,0-3-1.343-3-3v-8c0-1.657,1.343-3,3-3h10c1.657,0,3,1.343,3,3v8
			C19,20.657,17.657,22,16,22z"/>
		<path style="display:inline;" d="M23,16h-4v-4l2.49-0.497c0.743-0.248,1.51,0.305,1.51,1.088V16z"/>
		<path style="display:inline;" d="M23,14h-4v4l2.49,0.497c0.743,0.248,1.51-0.305,1.51-1.088V14z"/>
	</g>
</g>
<g id="online">
</g>
<g id="open_envelope">
</g>
<g id="send_mass_email">
</g>
<g id="high_importance">
</g>
<g id="rating">
</g>
<g id="filled_sent">
</g>
<g id="invisible">
</g>
<g id="lol">
</g>
<g id="question">
</g>
<g id="filled-chat">
</g>
<g id="email-open">
</g>
<g id="send">
</g>
<g id="new-message">
</g>
<g id="gmail_login">
</g>
<g id="message_group">
</g>
<g id="private2">
</g>
<g id="inbox">
</g>
<g id="neutral_emotion">
</g>
<g id="private">
</g>
<g id="invite">
</g>
<g id="quote">
</g>
<g id="parse_from_clipboard">
</g>
<g id="quote_right">
</g>
<g id="in_love">
</g>
<g id="rss">
</g>
<g id="reviewer-male">
</g>
<g id="popular_topic">
</g>
<g id="star_half_empty">
</g>
<g id="my-topic">
</g>
<g id="cool">
</g>
<g id="guest_female">
</g>
<g id="offline">
</g>
<g id="thinking_bubble">
</g>
<g id="align_right">
</g>
<g id="crying">
</g>
<g id="urgent_message">
</g>
<g id="mailbox_with_letter">
</g>
<g id="poll_topic">
</g>
<g id="renew_subscription">
</g>
<g id="spam">
</g>
<g id="broken_link">
</g>
<g id="composing_mail">
</g>
<g id="reading_confirmation">
</g>
<g id="wink">
</g>
<g id="poo">
</g>
<g id="forward_message">
</g>
<g id="do_not_disturb">
</g>
<g id="reply">
</g>
<g id="moderator_male">
</g>
<g id="filled_topic">
	<path d="M19,19H2V6c0-1.657,1.343-3,3-3h14c1.657,0,3,1.343,3,3v10C22,17.657,20.657,19,19,19z"/>
	<path d="M9,19l-7-1v1.828c0,1.746,1.974,2.762,3.395,1.747L9,19z"/>
</g>
<g id="comment_discussion">
</g>
<g id="delete_message">
</g>
<g id="retweet" style="display:none;">
</g>
<g id="low_importance">
</g>
<g id="cancel_subscription">
</g>
<g id="delete_message_1_">
</g>
<g id="copy_link">
</g>
<g id="angry">
</g>
<g id="message_squared">
</g>
<g id="address_book_2">
</g>
<g id="star_half">
</g>
<g id="speaker_notes">
</g>
<g id="send_letter">
</g>
<g id="surprised">
</g>
<g id="hashtag-large">
</g>
</svg>