<?xml version="1.0" encoding="iso-8859-1"?>
<!-- Generator: Adobe Illustrator 24.3.0, SVG Export Plug-In . SVG Version: 6.00 Build 0)  -->
<svg version="1.1" id="Layer_1" xmlns="http://www.w3.org/2000/svg" xmlns:xlink="http://www.w3.org/1999/xlink" x="0px" y="0px"
	 viewBox="0 0 24 24" style="enable-background:new 0 0 24 24;" xml:space="preserve">
<path style="opacity:0.35;" d="M21.155,20.101c1.414-2.118,2.113-4.755,1.751-7.564c-0.637-4.938-4.679-8.906-9.627-9.464
	C6.631,2.323,1,7.504,1,14c0,2.263,0.684,4.367,1.856,6.116C3.227,20.67,3.855,21,4.523,21h14.953
	C20.15,21,20.78,20.661,21.155,20.101z"/>
<circle cx="20" cy="14" r="1"/>
<path d="M11.25,12.701c-0.717,0.414-0.963,1.332-0.549,2.049c0.414,0.717,1.332,0.963,2.049,0.549
	c0.717-0.414,7.458-5.082,7.044-5.799C19.38,8.783,11.967,12.287,11.25,12.701z"/>
<circle cx="4" cy="14" r="1"/>
<circle cx="12" cy="6" r="1"/>
<circle cx="5.072" cy="18" r="1"/>
<circle cx="8" cy="7.072" r="1"/>
<circle cx="16" cy="7.072" r="1"/>
<circle cx="18.928" cy="18" r="1"/>
<circle cx="5.072" cy="10" r="1"/>
</svg>