<?xml version="1.0" encoding="iso-8859-1"?>
<!-- Generator: Adobe Illustrator 25.0.1, SVG Export Plug-In . SVG Version: 6.00 Build 0)  -->
<svg version="1.1" id="Layer_1" xmlns="http://www.w3.org/2000/svg" xmlns:xlink="http://www.w3.org/1999/xlink" x="0px" y="0px"
	 viewBox="0 0 24 24" style="enable-background:new 0 0 24 24;" xml:space="preserve">
<g style="opacity:0.35;">
	<circle cx="12" cy="12" r="10"/>
</g>
<g>
	<path d="M10.402,13.413c-0.781-0.781-0.781-2.047,0-2.828c0.442-0.441,3.098-2.193,5.322-3.631
		c0.745-0.481,1.619,0.393,1.137,1.138c-1.438,2.224-3.189,4.88-3.631,5.322C12.449,14.195,11.183,14.195,10.402,13.413z"/>
</g>
<g>
	<path d="M6.316,17.085c-0.311,0-0.617-0.145-0.813-0.415C4.521,15.304,4,13.689,4,12c0-4.411,3.589-8,8-8
		c0.954,0,1.887,0.166,2.773,0.493c0.518,0.191,0.783,0.767,0.592,1.285S14.599,6.56,14.08,6.37C13.416,6.124,12.717,6,12,6
		c-3.309,0-6,2.691-6,6c0,1.267,0.39,2.478,1.127,3.5c0.322,0.448,0.221,1.073-0.227,1.396C6.724,17.023,6.519,17.085,6.316,17.085z
		"/>
</g>
<g>
	<path d="M17.695,17.069c-0.201,0-0.404-0.061-0.581-0.187c-0.449-0.321-0.553-0.946-0.231-1.396C17.614,14.467,18,13.261,18,12
		c0-0.822-0.163-1.618-0.484-2.366c-0.218-0.507,0.017-1.096,0.524-1.313c0.504-0.216,1.096,0.017,1.313,0.524
		C19.782,9.843,20,10.904,20,12c0,1.681-0.516,3.289-1.49,4.651C18.314,16.924,18.007,17.069,17.695,17.069z"/>
</g>
</svg>