<svg xmlns="http://www.w3.org/2000/svg"  viewBox="0 0 24 24" width="24px" height="24px" fill-rule="evenodd" clip-rule="evenodd"><path d="M17,21H7c0-2.8,2.2-5,5-5S17,18.2,17,21"/><path fill-rule="evenodd" d="M22.8,19.9l-2.6-1.2c-0.4-0.2-0.7-0.5-0.8-0.8s-0.2-0.8,0-1.2l1-2.6c0.2-0.4,0.1-0.9-0.3-1.2	c-0.3-0.3-0.8-0.4-1.2-0.3l-2.6,1c-0.4,0.1-0.8,0.1-1.2,0c-0.4-0.2-0.7-0.4-0.8-0.8l-1.2-2.6c-0.2-0.4-0.6-0.7-1.1-0.7	s-0.9,0.3-1.1,0.7l-1.2,2.6c-0.2,0.4-0.5,0.7-0.8,0.8s-0.8,0.2-1.2,0l-2.6-1c-0.4-0.2-0.9-0.1-1.2,0.3c-0.3,0.3-0.4,0.8-0.3,1.2	l1,2.6c0.1,0.4,0.1,0.8,0,1.2s-0.4,0.7-0.8,0.8l-2.6,1.2c-0.4,0.2-0.7,0.6-0.7,1.1h23C23.5,20.5,23.2,20.1,22.8,19.9z" clip-rule="evenodd" opacity=".35"/><path d="M11,4c0,0.2,0,2.8,0,3c0,0.6,0.4,1,1,1s1-0.4,1-1c0-0.2,0-2.8,0-3c0-0.6-0.4-1-1-1S11,3.4,11,4z"/><path d="M13,0.4l2.3,2.3C15.7,3.2,15.4,4,14.7,4H9.3c-0.7,0-1-0.8-0.5-1.3L11,0.4C11.6-0.1,12.4-0.1,13,0.4z"/></svg>