<svg xmlns="http://www.w3.org/2000/svg"  viewBox="0 0 24 24" width="24px" height="24px" fill-rule="evenodd" clip-rule="evenodd"><path d="M17.006,21.008h-10c0-2.761,2.239-5,5-5S17.006,18.248,17.006,21.008"/><path fill-rule="evenodd" d="M22.807,19.925l-2.578-1.167	c-0.365-0.165-0.653-0.463-0.806-0.833s-0.16-0.784-0.019-1.159l0.997-2.648c0.163-0.434,0.058-0.923-0.27-1.25	c-0.328-0.327-0.817-0.433-1.25-0.27l-2.648,0.997c-0.375,0.141-0.789,0.134-1.159-0.019c-0.37-0.153-0.668-0.441-0.833-0.806	l-1.167-2.578C12.884,9.771,12.463,9.5,12,9.5s-0.884,0.271-1.075,0.693l-1.167,2.578c-0.165,0.365-0.463,0.653-0.833,0.806	s-0.784,0.16-1.159,0.019l-2.648-0.997c-0.434-0.163-0.923-0.058-1.25,0.27c-0.328,0.328-0.433,0.817-0.27,1.25l0.997,2.648	c0.141,0.375,0.134,0.789-0.019,1.159s-0.441,0.667-0.806,0.833l-2.578,1.167C0.771,20.116,0.5,20.537,0.5,21h23	C23.5,20.537,23.229,20.116,22.807,19.925z" clip-rule="evenodd" opacity=".35"/><path d="M12.999,4c0-0.186,0-2.814,0-3c0-0.552-0.448-1-1-1s-1,0.448-1,1c0,0.186,0,2.814,0,3c0,0.552,0.448,1,1,1	S12.999,4.552,12.999,4z"/><path d="M11.023,7.595L8.734,5.306C8.252,4.824,8.593,4,9.275,4h5.451c0.681,0,1.023,0.824,0.541,1.306l-2.289,2.289	C12.438,8.135,11.562,8.135,11.023,7.595z"/></svg>