<svg xmlns="http://www.w3.org/2000/svg"  viewBox="0 0 24 24" width="24px" height="24px"><path d="M5,7C4.744,7,4.488,6.902,4.293,6.707l-1-1c-0.391-0.391-0.391-1.023,0-1.414s1.023-0.391,1.414,0L5,4.586l2.293-2.293	c0.391-0.391,1.023-0.391,1.414,0s0.391,1.023,0,1.414l-3,3C5.512,6.902,5.256,7,5,7z"/><path d="M5,14c-0.256,0-0.512-0.098-0.707-0.293l-1-1c-0.391-0.391-0.391-1.023,0-1.414s1.023-0.391,1.414,0L5,11.586l2.293-2.293	c0.391-0.391,1.023-0.391,1.414,0s0.391,1.023,0,1.414l-3,3C5.512,13.902,5.256,14,5,14z"/><path d="M5,21c-0.256,0-0.512-0.098-0.707-0.293l-1-1c-0.391-0.391-0.391-1.023,0-1.414s1.023-0.391,1.414,0L5,18.586l2.293-2.293	c0.391-0.391,1.023-0.391,1.414,0s0.391,1.023,0,1.414l-3,3C5.512,20.902,5.256,21,5,21z"/><path d="M19.5,4c-0.386,0-6.614,0-7,0C11.672,4,11,4.672,11,5.5S11.672,7,12.5,7c0.386,0,6.614,0,7,0	C20.328,7,21,6.328,21,5.5S20.328,4,19.5,4z" opacity=".35"/><path d="M19.5,11c-0.386,0-6.614,0-7,0c-0.828,0-1.5,0.672-1.5,1.5s0.672,1.5,1.5,1.5c0.386,0,6.614,0,7,0	c0.828,0,1.5-0.672,1.5-1.5S20.328,11,19.5,11z" opacity=".35"/><path d="M19.5,18c-0.386,0-6.614,0-7,0c-0.828,0-1.5,0.672-1.5,1.5s0.672,1.5,1.5,1.5c0.386,0,6.614,0,7,0	c0.828,0,1.5-0.672,1.5-1.5S20.328,18,19.5,18z" opacity=".35"/></svg>