<?xml version="1.0" encoding="iso-8859-1"?>
<!-- Generator: Adobe Illustrator 24.3.0, SVG Export Plug-In . SVG Version: 6.00 Build 0)  -->
<svg version="1.1" id="Layer_1" xmlns="http://www.w3.org/2000/svg" xmlns:xlink="http://www.w3.org/1999/xlink" x="0px" y="0px"
	 viewBox="0 0 24 24" style="enable-background:new 0 0 24 24;" xml:space="preserve">
<path style="opacity:0.35;" d="M17,22H7c-1.657,0-3-1.343-3-3V6h16v13C20,20.657,18.657,22,17,22z"/>
<path d="M16,4H8V3c0-0.552,0.448-1,1-1h6c0.552,0,1,0.448,1,1V4z"/>
<path d="M19,3C18.399,3,5.601,3,5,3C3.895,3,3,3.895,3,5c0,1.105,0.895,2,2,2c0.601,0,13.399,0,14,0c1.105,0,2-0.895,2-2
	C21,3.895,20.105,3,19,3z"/>
</svg>