<svg xmlns="http://www.w3.org/2000/svg"  viewBox="0 0 24 24" width="24px" height="24px"><path d="M12,10c-2.483,0-4.792,0.758-6.708,2.054c-1.007,0.682-1.099,2.139-0.239,2.999l0.038,0.038	c0.658,0.658,1.692,0.776,2.466,0.258C8.829,14.498,10.358,14,12,14s3.171,0.498,4.442,1.35c0.774,0.518,1.808,0.4,2.466-0.258	l0.038-0.038c0.86-0.86,0.769-2.317-0.239-2.999C16.792,10.758,14.483,10,12,10z" opacity=".35"/><path d="M9.527,19.527l0.747,0.747c0.953,0.953,2.499,0.953,3.452,0l0.747-0.747c1.082-1.082,0.575-2.917-0.902-3.318	C13.07,16.073,12.544,16,12,16s-1.07,0.073-1.571,0.209C8.952,16.61,8.445,18.445,9.527,19.527z"/><path d="M12,8c3.217,0,6.183,1.09,8.55,2.921c0.806,0.623,1.936,0.594,2.656-0.127l0.027-0.027c0.847-0.847,0.746-2.24-0.199-2.976	C19.984,5.415,16.149,4,11.983,4C7.826,4,3.999,5.409,0.953,7.775c-0.947,0.735-1.048,2.13-0.2,2.977l0.042,0.042	c0.72,0.72,1.85,0.75,2.656,0.127C5.817,9.09,8.783,8,12,8z"/></svg>