<svg xmlns="http://www.w3.org/2000/svg"  viewBox="0 0 24 24" width="24px" height="24px"><path d="M17,12H3.5C2.672,12,2,11.328,2,10.5S2.672,9,3.5,9H17c1.103,0,2-0.897,2-2s-0.897-2-2-2	c-0.771,0-1.459,0.439-1.797,1.146c-0.357,0.748-1.252,1.064-2,0.707c-0.747-0.357-1.064-1.253-0.707-2C13.324,3.12,15.092,2,17,2	c2.757,0,5,2.243,5,5S19.757,12,17,12z" opacity=".35"/><path d="M16,22c-0.828,0-1.5-0.672-1.5-1.5S15.172,19,16,19c0.309,0,0.596-0.14,0.787-0.383c0.112-0.143,0.286-0.448,0.181-0.887	C16.867,17.314,16.4,17,15.881,17H7.357c-0.828,0-1.5-0.672-1.5-1.5s0.672-1.5,1.5-1.5h8.523c1.897,0,3.581,1.273,4.003,3.029	c0.294,1.22,0.023,2.476-0.74,3.445C18.379,21.444,17.233,22,16,22z"/></svg>